# xmcd
#
# Track frame offsets:
#	182
#	18472
#	32577
#	47877
#	60955
#	79317
#	90790
#	102837
#	125012
#	141370
#	161300
#	178910
#	191817
#	208095
#	224095
#	235190
#	248235
#	263332
#	277975
#	290572
#
# Disc length: 4134
#
# Revision: 2
# Processed by: cddbd v1.5.1PL0 Copyright (c) Steve Scherf et al.
# Submitted via: EasyCDDAExtractor 5.1.0
# Normalized: r1:DSETVAR1
#
DISCID=21102414
DTITLE=Various Artist - Ultimate Country Disk 2
DYEAR=1998
DGENRE=Country
TTITLE0=Trisha Yearwood - How Do I Live
TTITLE1=Elvis Costello and The Attractions - A Good Year For the Roses
TTITLE2=Billy Ray Cyrus - Achy Breaky Heart
TTITLE3=Steps - 5,6,7,8
TTITLE4=Olivia Newton-John - I Honestly Love You
TTITLE5=Crystal Gayle - Don't it Make My Brown Eyes Blue
TTITLE6=Tammy Wynette - Stand By Your Man
TTITLE7=Edie Brickell and New Bohemians - What I Am
TTITLE8=Barbara Mandrell - I Was Country When Country Wasn't Cool
TTITLE9=Wynonna - She Is His Only Need
TTITLE10=The Judds - Love Can Build A Bridge
TTITLE11=Oak Ridge Boys - Bobbie Sue
TTITLE12=Charlie Daniels Band - The Devil Went Down To Georgia
TTITLE13=Randy Travis - Forever and Ever, Amen
TTITLE14=Charley Pride - Help Me Make It Through The Night
TTITLE15=Amanda Normansell - Talking In Your Sleep
TTITLE16=Conway Twitty - Play, Guitar Play
TTITLE17=The Bellamy Brothers - If I Said You Had A Beautiful Body
TTITLE18=Don Williams - You're My Best Friend
TTITLE19=Kenny Rogers - I Will Always Love You
EXTD=YEAR: 1998 ID3G: 2
EXTT0=
EXTT1=
EXTT2=
EXTT3=
EXTT4=
EXTT5=
EXTT6=
EXTT7=
EXTT8=
EXTT9=
EXTT10=
EXTT11=
EXTT12=
EXTT13=
EXTT14=
EXTT15=
EXTT16=
EXTT17=
EXTT18=
EXTT19=
PLAYORDER=
